<svg width="24" height="24" viewBox="0 0 24 24" fill="none" xmlns="http://www.w3.org/2000/svg">
<g clip-path="url(#clip0_2973_70617)">
<path d="M24 12C24 18.6274 18.6274 24 12 24C5.37262 24 0 18.6274 0 12C0 12.0028 12 0.00135937 12 0C18.6274 0 24 5.37262 24 12Z" fill="#0052B4"/>
<path d="M11.9678 12.0004H11.9999C11.9999 11.9895 11.9999 11.9791 11.9999 11.9683C11.9892 11.979 11.9785 11.9897 11.9678 12.0004Z" fill="#F0F0F0"/>
<path d="M12 6.26171C12 4.15023 12 2.76662 12 0.000854492H11.998C5.3715 0.00193262 0 5.37404 0 12.0008H6.26086V8.47524L9.78642 12.0008H11.9679C11.9787 11.9901 11.9894 11.9794 12 11.9687C12 11.1602 12 10.4389 12 9.78732L8.47443 6.26171H12Z" fill="#F0F0F0"/>
<path d="M6.07124 1.56567C4.19441 2.63438 2.63413 4.19466 1.56543 6.07149V12.0005H4.69588V4.69617V4.69613H12.0002C12.0002 3.7088 12.0002 2.76821 12.0002 1.56567H6.07124Z" fill="#D80027"/>
<path d="M12.0003 10.5249L7.7369 6.2615H6.26123C6.26123 6.26145 6.26123 6.2615 6.26123 6.2615L12.0003 12.0005H12.0003C12.0003 12.0005 12.0003 10.9831 12.0003 10.5249Z" fill="#D80027"/>
<path d="M7.23778 14.0864L7.89637 15.4635L9.38357 15.1198L8.71757 16.4933L9.91354 17.4417L8.42446 17.7774L8.42864 19.3038L7.23778 18.3488L6.04696 19.3038L6.05114 17.7774L4.56201 17.4417L5.75803 16.4933L5.09193 15.1198L6.57923 15.4635L7.23778 14.0864Z" fill="#F0F0F0"/>
<path d="M17.9673 16.6954L18.2965 17.384L19.0402 17.2121L18.7071 17.8989L19.3052 18.3731L18.5606 18.5409L18.5627 19.3041L17.9673 18.8266L17.3718 19.3041L17.3739 18.5409L16.6294 18.3731L17.2274 17.8989L16.8944 17.2121L17.638 17.384L17.9673 16.6954Z" fill="#F0F0F0"/>
<path d="M14.9038 9.39148L15.2331 10.0801L15.9767 9.90814L15.6437 10.5949L16.2417 11.0691L15.4972 11.2369L15.4992 12.0002L14.9038 11.5227L14.3084 12.0002L14.3104 11.2369L13.5659 11.0691L14.1639 10.5949L13.8309 9.90814L14.5745 10.0801L14.9038 9.39148Z" fill="#F0F0F0"/>
<path d="M17.9673 5.21765L18.2965 5.90625L19.0402 5.73436L18.7072 6.42112L19.3051 6.89531L18.5606 7.06317L18.5627 7.82639L17.9673 7.34887L17.3718 7.82639L17.3739 7.06317L16.6294 6.89531L17.2273 6.42112L16.8944 5.73436L17.638 5.90625L17.9673 5.21765Z" fill="#F0F0F0"/>
<path d="M20.6426 8.34778L20.9718 9.03637L21.7155 8.86443L21.3825 9.5512L21.9804 10.0254L21.2359 10.1933L21.2379 10.9565L20.6426 10.479L20.0472 10.9565L20.0492 10.1933L19.3047 10.0254L19.9027 9.5512L19.5697 8.86443L20.3132 9.03637L20.6426 8.34778Z" fill="#F0F0F0"/>
<path d="M18.7295 12.0004L18.9885 12.7975H19.8267L19.1486 13.2902L19.4077 14.0873L18.7295 13.5947L18.0514 14.0873L18.3104 13.2902L17.6323 12.7975H18.4705L18.7295 12.0004Z" fill="#F0F0F0"/>
</g>
<defs>
<clipPath id="clip0_2973_70617">
<rect width="24" height="24" fill="white"/>
</clipPath>
</defs>
</svg>
