<svg width="24" height="24" viewBox="0 0 24 24" fill="none" xmlns="http://www.w3.org/2000/svg">
<g clip-path="url(#clip0_2973_70993)">
<path d="M12 24C18.6274 24 24 18.6274 24 12C24 5.37258 18.6274 0 12 0C5.37258 0 0 5.37258 0 12C0 18.6274 5.37258 24 12 24Z" fill="#6DA544"/>
<path d="M18.4214 17.2178L18.7506 17.9063L19.4943 17.7345L19.1613 18.4212L19.7593 18.8954L19.0147 19.0632L19.0168 19.8265L18.4214 19.349L17.8259 19.8265L17.828 19.0632L17.0835 18.8954L17.6815 18.4212L17.3485 17.7345L18.0921 17.9063L18.4214 17.2178Z" fill="#FFDA44"/>
<path d="M15.3579 9.91223L15.6872 10.6008L16.4308 10.4289L16.0978 11.1157L16.6958 11.5899L15.9513 11.7577L15.9533 12.5209L15.3579 12.0435L14.7625 12.5209L14.7645 11.7577L14.02 11.5899L14.618 11.1157L14.285 10.4289L15.0286 10.6008L15.3579 9.91223Z" fill="#FFDA44"/>
<path d="M18.4213 5.73828L18.7506 6.42683L19.4942 6.25489L19.1613 6.9417L19.7592 7.41594L19.0146 7.5837L19.0167 8.34697L18.4213 7.86945L17.8259 8.34697L17.828 7.5837L17.0835 7.41594L17.6814 6.9417L17.3484 6.25489L18.092 6.42683L18.4213 5.73828Z" fill="#FFDA44"/>
<path d="M21.0971 8.87012L21.4264 9.55866L22.1701 9.38677L21.8371 10.0736L22.4351 10.5478L21.6905 10.7156L21.6926 11.4788L21.0971 11.0013L20.5017 11.4788L20.5037 10.7156L19.7593 10.5478L20.3573 10.0736L20.0242 9.38677L20.7678 9.55866L21.0971 8.87012Z" fill="#FFDA44"/>
<path d="M19.1841 12.5211L19.4432 13.3183H20.2813L19.6032 13.811L19.8623 14.6081L19.1841 14.1155L18.506 14.6081L18.765 13.811L18.0869 13.3183H18.9251L19.1841 12.5211Z" fill="#FFDA44"/>
<path d="M13.3045 15.3913C11.4315 15.3913 9.9131 13.8729 9.9131 12C9.9131 10.127 11.4314 8.60867 13.3045 8.60867C13.8884 8.60867 14.4379 8.75638 14.9177 9.0163C14.1651 8.28027 13.1359 7.82605 12 7.82605C9.69489 7.82605 7.82617 9.69477 7.82617 11.9999C7.82617 14.3051 9.69489 16.1738 12 16.1738C13.1359 16.1738 14.1651 15.7196 14.9176 14.9836C14.4379 15.2436 13.8884 15.3913 13.3045 15.3913Z" fill="#FFDA44"/>
<path d="M7.54678 4.69546C7.18584 4.07184 6.51201 3.65198 5.7397 3.65198C4.96738 3.65198 4.29356 4.07184 3.93262 4.69546H7.54678Z" fill="#FFDA44"/>
<path d="M7.55328 4.7074L5.73927 6.52141L3.92525 4.7074C3.75186 5.01166 3.65234 5.36355 3.65234 5.73883C3.65234 6.89144 4.5867 7.8258 5.73931 7.8258C6.89192 7.8258 7.82628 6.89149 7.82628 5.73883C7.82623 5.36355 7.72667 5.01166 7.55328 4.7074Z" fill="#FFDA44"/>
<path d="M5.21729 6.00049V7.76083C5.38402 7.80372 5.55886 7.82655 5.73901 7.82655C5.91915 7.82655 6.09399 7.80367 6.26073 7.76083V6.00049H5.21729Z" fill="#A2001D"/>
</g>
<defs>
<clipPath id="clip0_2973_70993">
<rect width="24" height="24" fill="white"/>
</clipPath>
</defs>
</svg>
