<svg width="24" height="24" viewBox="0 0 24 24" fill="none" xmlns="http://www.w3.org/2000/svg">
<g clip-path="url(#clip0_2973_71070)">
<path d="M12 24.0001C18.6273 24.0001 23.9999 18.6275 23.9999 12.0001C23.9999 5.37274 18.6273 0.000183105 12 0.000183105C5.37256 0.000183105 0 5.37274 0 12.0001C0 18.6275 5.37256 24.0001 12 24.0001Z" fill="#F0F0F0"/>
<path d="M11.9994 0C8.07357 0 4.58822 1.88545 2.39893 4.8H21.5999C19.4107 1.88541 15.9253 0 11.9994 0Z" fill="#0052B4"/>
<path d="M11.9994 23.9999C15.9253 23.9999 19.4107 22.1145 21.6 19.2H2.39893C4.58818 22.1145 8.07357 23.9999 11.9994 23.9999Z" fill="#0052B4"/>
<path d="M0 12C0 12.8219 0.0828749 13.6245 0.240328 14.4H23.7597C23.9172 13.6245 24 12.8219 24 12C24 11.178 23.9171 10.3754 23.7597 9.59998H0.240328C0.0828749 10.3754 0 11.178 0 12Z" fill="#0052B4"/>
<path d="M3.51468 3.51459C-1.17156 8.20082 -1.17156 15.7988 3.51468 20.4852C5.45122 18.5486 7.31366 16.6861 11.9999 11.9999L3.51468 3.51459Z" fill="#D80027"/>
<path d="M4.85646 8.86957L5.63336 11.2609H8.14802L6.11379 12.739L6.89069 15.1303L4.85646 13.6524L2.82213 15.1303L3.59922 12.739L1.56494 11.2609H4.07941L4.85646 8.86957Z" fill="#F0F0F0"/>
</g>
<defs>
<clipPath id="clip0_2973_71070">
<rect width="24" height="24" fill="white"/>
</clipPath>
</defs>
</svg>
