<svg width="24" height="24" viewBox="0 0 24 24" fill="none" xmlns="http://www.w3.org/2000/svg">
<g clip-path="url(#clip0_2973_71316)">
<path d="M5.23633 21.9123C7.16214 23.2288 9.49089 23.9993 11.9998 23.9993C14.5087 23.9993 16.8374 23.2288 18.7632 21.9123L11.9998 20.8688L5.23633 21.9123Z" fill="#D80027"/>
<path d="M18.7642 2.08691C16.8383 0.770423 14.5096 -6.10352e-05 12.0008 -6.10352e-05C9.49187 -6.10352e-05 7.16312 0.770423 5.2373 2.08691L12.0008 3.13039L18.7642 2.08691Z" fill="#D80027"/>
<path d="M23.9995 12.0004C23.9995 8.02965 21.6222 4.042 18.763 2.0874H5.23606C2.07467 4.24853 -0.000488281 7.882 -0.000488281 12.0004C-0.000488281 16.119 2.07467 19.7523 5.23606 21.9135H18.763C21.9244 19.7523 23.9995 16.119 23.9995 12.0004Z" fill="#0052B4"/>
<path d="M11.3208 19.5749C11.1568 19.4343 7.3042 16.0851 7.3042 12C7.3042 7.91492 11.1568 4.56575 11.3208 4.42517L11.9999 3.84308L12.6789 4.42513C12.8429 4.56575 16.6955 7.91488 16.6955 12C16.6955 16.0852 12.843 19.4344 12.6789 19.5749L11.9999 20.157L11.3208 19.5749Z" fill="#D80027"/>
<path d="M15.6525 12C15.6525 8.3478 12.0003 5.21735 12.0003 5.21735C12.0003 5.21735 8.34814 8.34789 8.34814 12C8.34814 13.1172 8.69019 14.1855 9.16466 15.1304H14.836C15.3104 14.1855 15.6525 13.1172 15.6525 12Z" fill="#338AF3"/>
<path d="M15.6525 12.0004C15.6525 13.1177 15.3104 14.1859 14.836 15.1309L12.0003 15.6526L9.16466 15.1309C8.69019 14.186 8.34814 13.1177 8.34814 12.0004H15.6525Z" fill="#0052B4"/>
<path d="M12.0002 18.7824C12.0002 18.7824 13.7593 17.2741 14.8359 15.1302H9.16455C10.2411 17.2741 12.0002 18.7824 12.0002 18.7824Z" fill="#FFDA44"/>
<path d="M9.65186 9.9126H14.3475L11.9997 12.2604L9.65186 9.9126Z" fill="#6DA544"/>
<path d="M12.7825 11.4773H11.2173V16.173H12.7825V11.4773Z" fill="#A2001D"/>
</g>
<defs>
<clipPath id="clip0_2973_71316">
<rect width="24" height="24" fill="white"/>
</clipPath>
</defs>
</svg>
