<svg width="24" height="24" viewBox="0 0 24 24" fill="none" xmlns="http://www.w3.org/2000/svg">
<g clip-path="url(#clip0_2973_71375)">
<path d="M12 24C18.6274 24 24 18.6274 24 12C24 5.37258 18.6274 0 12 0C5.37258 0 0 5.37258 0 12C0 18.6274 5.37258 24 12 24Z" fill="#D80027"/>
<path d="M13.2392 9.07752C12.9665 10.2118 12.482 9.99552 12.2442 10.9848C10.8434 10.648 9.9807 9.23938 10.3175 7.83852C10.6542 6.43775 12.0629 5.57506 13.4637 5.91186C12.9881 7.89031 13.4832 8.063 13.2392 9.07752Z" fill="#F0F0F0"/>
<path d="M9.60444 9.91749C10.599 10.5273 10.2435 10.9214 11.1108 11.4533C10.3576 12.6815 8.75141 13.0665 7.52319 12.3134C6.29502 11.5603 5.90985 9.954 6.66304 8.72583C8.39769 9.78952 8.7148 9.372 9.60444 9.91749Z" fill="#F0F0F0"/>
<path d="M9.28044 13.6349C10.1678 12.8775 10.4326 13.3373 11.2065 12.6769C12.1419 13.7727 12.0117 15.4193 10.916 16.3547C9.82015 17.2901 8.17353 17.1598 7.23828 16.0641C8.78581 14.743 8.4867 14.3123 9.28044 13.6349Z" fill="#F0F0F0"/>
<path d="M12.7155 15.0914C12.2692 14.0135 12.7884 13.9036 12.3994 12.9636C13.7306 12.4127 15.2565 13.0452 15.8075 14.3764C16.3584 15.7076 15.7258 17.2334 14.3946 17.7844C13.6166 15.9043 13.1146 16.0557 12.7155 15.0914Z" fill="#F0F0F0"/>
<path d="M15.1623 12.2739C13.9991 12.3652 14.055 11.8374 13.0408 11.917C12.9282 10.4808 14.0013 9.22495 15.4376 9.11222C16.8739 8.99976 18.1297 10.0728 18.2423 11.5092C16.2137 11.6682 16.2025 12.1924 15.1623 12.2739Z" fill="#F0F0F0"/>
</g>
<defs>
<clipPath id="clip0_2973_71375">
<rect width="24" height="24" fill="white"/>
</clipPath>
</defs>
</svg>
