<svg width="24" height="24" viewBox="0 0 24 24" fill="none" xmlns="http://www.w3.org/2000/svg">
<g clip-path="url(#clip0_2973_71425)">
<path d="M12 24C18.6274 24 24 18.6274 24 12C24 5.37258 18.6274 0 12 0C5.37258 0 0 5.37258 0 12C0 18.6274 5.37258 24 12 24Z" fill="#F0F0F0"/>
<path d="M16.5183 9.39204H13.506L11.9999 6.78336L10.4938 9.39204H7.48145L8.98773 12.0007L7.48145 14.6094H10.4938L11.9999 17.2181L13.506 14.6094H16.5183L15.012 12.0007L16.5183 9.39204ZM13.8503 12.0007L12.9251 13.6033H11.0747L10.1495 12.0007L11.0747 10.3982H12.9251L13.8503 12.0007ZM11.9999 8.79556L12.3442 9.39199H11.6556L11.9999 8.79556ZM9.22421 10.3982H9.9129L9.56856 10.9946L9.22421 10.3982ZM9.22421 13.6033L9.5686 13.0069L9.91295 13.6033H9.22421ZM11.9999 15.2059L11.6556 14.6094H12.3442L11.9999 15.2059ZM14.7755 13.6033H14.0868L14.4312 13.0069L14.7755 13.6033ZM14.0868 10.3982H14.7755L14.4312 10.9946L14.0868 10.3982Z" fill="#0052B4"/>
<path d="M19.4698 2.60904H4.53009C3.43495 3.48129 2.49576 4.54076 1.76123 5.73949H22.2387C21.5041 4.5408 20.5649 3.48129 19.4698 2.60904Z" fill="#0052B4"/>
<path d="M4.53009 21.3914H19.4698C20.5649 20.5191 21.5041 19.4597 22.2386 18.2609H1.76123C2.49581 19.4596 3.435 20.5191 4.53009 21.3914Z" fill="#0052B4"/>
</g>
<defs>
<clipPath id="clip0_2973_71425">
<rect width="24" height="24" fill="white"/>
</clipPath>
</defs>
</svg>
