<svg width="24" height="24" viewBox="0 0 24 24" fill="none" xmlns="http://www.w3.org/2000/svg">
<g clip-path="url(#clip0_2973_71489)">
<path d="M12 24C18.6274 24 24 18.6274 24 12C24 5.37258 18.6274 0 12 0C5.37258 0 0 5.37258 0 12C0 18.6274 5.37258 24 12 24Z" fill="#D80027"/>
<path d="M17.8681 12L15.4702 13.1279L16.7471 15.4505L14.1431 14.9522L13.8133 17.5827L11.9994 15.6481L10.1857 17.5827L9.85578 14.9522L7.25197 15.4504L8.52884 13.1279L6.13086 12L8.52884 10.8722L7.25197 8.54962L9.85569 9.0479L10.1858 6.41742L11.9994 8.352L13.8133 6.41742L14.1431 9.0479L16.7472 8.54962L15.4702 10.8723L17.8681 12Z" fill="#FFDA44"/>
<path d="M12.0003 15.6514C14.0174 15.6514 15.6525 14.0163 15.6525 11.9992C15.6525 9.98218 14.0174 8.34705 12.0003 8.34705C9.98328 8.34705 8.34814 9.98218 8.34814 11.9992C8.34814 14.0163 9.98328 15.6514 12.0003 15.6514Z" fill="#D80027"/>
<path d="M10.1742 12.0004C10.0862 12.0004 9.99931 12.0049 9.91357 12.0134C9.91671 12.5192 10.0997 12.9822 10.402 13.3419C10.5632 12.908 10.804 12.5123 11.1076 12.1737C10.8176 12.0621 10.503 12.0004 10.1742 12.0004Z" fill="#FFDA44"/>
<path d="M11.2983 13.967C11.5177 14.0454 11.7539 14.0884 12.0003 14.0884C12.2467 14.0884 12.4829 14.0454 12.7022 13.967C12.5827 13.4977 12.3358 13.0788 12.0003 12.7495C11.6648 13.0787 11.4179 13.4977 11.2983 13.967Z" fill="#FFDA44"/>
<path d="M13.8079 10.9573C13.447 10.3335 12.7731 9.91345 12.0006 9.91345C11.2281 9.91345 10.5542 10.3335 10.1934 10.9573C10.8512 10.9606 11.4681 11.1395 12.0006 11.4483C12.5332 11.1395 13.15 10.9606 13.8079 10.9573Z" fill="#FFDA44"/>
<path d="M12.8926 12.1739C13.1962 12.5125 13.4369 12.9082 13.5982 13.3421C13.9004 12.9825 14.0834 12.5195 14.0866 12.0136C14.0008 12.0051 13.9139 12.0006 13.826 12.0006C13.4972 12.0006 13.1826 12.0623 12.8926 12.1739Z" fill="#FFDA44"/>
</g>
<defs>
<clipPath id="clip0_2973_71489">
<rect width="24" height="24" fill="white"/>
</clipPath>
</defs>
</svg>
