<svg width="24" height="24" viewBox="0 0 24 24" fill="none" xmlns="http://www.w3.org/2000/svg">
<g clip-path="url(#clip0_2973_72116)">
<path d="M12 24C18.6274 24 24 18.6274 24 12C24 5.37257 18.6274 0 12 0C5.37257 0 0 5.37257 0 12C0 18.6274 5.37257 24 12 24Z" fill="#FFDA44"/>
<path d="M9.391 2.08618H5.23623C5.05211 2.21204 4.87192 2.34306 4.69534 2.47867L3.65186 11.9992L4.69534 21.5197C4.87192 21.6554 5.05211 21.7864 5.23623 21.9122H9.391V2.08618Z" fill="#FF9811"/>
<path d="M0 12.0007C0 15.8793 1.84069 19.3276 4.69567 21.5212V2.4801C1.84069 4.67376 0 8.12199 0 12.0007Z" fill="#6DA544"/>
<path d="M19.3042 7.31531V7.61582L19.3154 7.61751L19.3042 7.31531Z" fill="#FFDA44"/>
<path d="M23.0435 15.1296H20.7826L19.8261 16.1731V18.2601H17.7391V17.2166H18.7826V15.1296H14.087V16.434H13.0435V13.9482C12.7233 13.6616 12.5217 13.2453 12.5217 12.7818V5.99922C12.5217 5.1348 13.2225 4.43401 14.087 4.43401V14.0862H16.1739L16.89 13.4894C16.7649 13.1915 16.6956 12.8644 16.6956 12.521V10.9558H15.1304V7.82538H18.2608C18.2608 7.30366 19.0435 6.78189 19.0435 6.78189C19.0435 6.78189 19.8261 7.30361 19.8261 7.82538V8.60801V10.9558C20.4066 10.9627 21.3288 10.9477 22.3251 10.9558C22.0634 10.4983 21.913 9.95548 21.913 9.39063C21.913 8.46996 22.3105 7.64224 22.9432 7.06943C22.0312 5.04841 20.576 3.32518 18.7634 2.08618H10.9565V21.9123H18.7635C20.9675 20.4057 22.6432 18.1833 23.4562 15.5799L23.0435 15.1296Z" fill="#A2001D"/>
</g>
<defs>
<clipPath id="clip0_2973_72116">
<rect width="24" height="24" fill="white"/>
</clipPath>
</defs>
</svg>
