<svg width="24" height="24" viewBox="0 0 24 24" fill="none" xmlns="http://www.w3.org/2000/svg">
<g clip-path="url(#clip0_2973_71520)">
<path d="M12 24C18.6274 24 24 18.6274 24 12C24 5.37258 18.6274 0 12 0C5.37258 0 0 5.37258 0 12C0 18.6274 5.37258 24 12 24Z" fill="#F0F0F0"/>
<path d="M2.74316 4.36307H21.2573C20.5735 3.53502 19.7804 2.80073 18.9006 2.18127H5.0999C4.2201 2.80063 3.42702 3.53498 2.74316 4.36307Z" fill="#F0F0F0"/>
<path d="M0 12.0005C0 12.3684 0.0174844 12.732 0.049875 13.0915H23.9501C23.9825 12.732 24 12.3684 24 12.0005C24 11.6327 23.9825 11.2691 23.9501 10.9097H0.049875C0.0174844 11.2691 0 11.6327 0 12.0005Z" fill="#F0F0F0"/>
<path d="M1.30884 17.4546H22.6917C23.0451 16.7634 23.3332 16.0335 23.5484 15.2728H0.452148C0.667258 16.0335 0.955539 16.7634 1.30884 17.4546Z" fill="#F0F0F0"/>
<path d="M5.0999 21.818H18.9005C19.7803 21.1986 20.5734 20.4643 21.2572 19.6362H2.74316C3.42702 20.4642 4.2201 21.1986 5.0999 21.818Z" fill="#F0F0F0"/>
<path d="M0.452148 8.72782H23.5485C23.3333 7.96713 23.0451 7.23719 22.6918 6.54602H1.30888C0.955586 7.23719 0.667305 7.96713 0.452148 8.72782Z" fill="#F0F0F0"/>
<path d="M5.73828 2.18192H18.8995C16.9476 0.807638 14.5677 0.00012207 11.9991 0.00012207C10.4339 0.00012207 7.69016 0.807638 5.73828 2.18192Z" fill="#D80027"/>
<path d="M11.478 6.54532H22.6912C22.2921 5.76471 21.8102 5.03351 21.2568 4.36353H11.478V6.54532Z" fill="#D80027"/>
<path d="M11.478 10.9085H23.9499C23.8824 10.1593 23.7467 9.42976 23.5479 8.72668H11.478V10.9085Z" fill="#D80027"/>
<path d="M0.451316 15.2737H23.5476C23.7464 14.5707 23.8821 13.8411 23.9496 13.0919H0.0493164C0.116816 13.8411 0.252473 14.5706 0.451316 15.2737Z" fill="#D80027"/>
<path d="M2.74248 19.6369H21.2566C21.81 18.9668 22.2919 18.2356 22.691 17.4551H1.30811C1.70715 18.2357 2.18912 18.9669 2.74248 19.6369Z" fill="#D80027"/>
<path d="M11.999 24.0005C14.5676 24.0005 16.9474 23.193 18.8993 21.8187H5.09863C7.05051 23.193 9.43035 24.0005 11.999 24.0005Z" fill="#D80027"/>
<path d="M0.451758 8.72692C0.252914 9.43004 0.117305 10.1596 0.0498047 10.9087H11.9999V-0.000366211C6.50711 -0.000366211 1.87638 3.6902 0.451758 8.72692Z" fill="#0052B4"/>
<path d="M7.14357 3.13049L7.92052 5.52182H10.4352L8.40089 6.99989L9.1778 9.39136L7.14357 7.91339L5.10924 9.39136L5.88633 6.99989L3.85205 5.52182H6.36657L7.14357 3.13049Z" fill="#F0F0F0"/>
</g>
<defs>
<clipPath id="clip0_2973_71520">
<rect width="24" height="24" fill="white"/>
</clipPath>
</defs>
</svg>
