<svg width="24" height="24" viewBox="0 0 24 24" fill="none" xmlns="http://www.w3.org/2000/svg">
<g clip-path="url(#clip0_2973_71641)">
<path d="M17.217 1.19133C15.6394 0.428485 13.8695 0.000610352 11.9996 0.000610352C10.1298 0.000610352 8.35988 0.428485 6.78225 1.19133L5.73877 12.0006L6.78225 22.8099C8.35988 23.5727 10.1298 24.0006 11.9996 24.0006C13.8695 24.0006 15.6394 23.5727 17.217 22.8099L18.2605 12.0006L17.217 1.19133Z" fill="#FFDA44"/>
<path d="M6.78262 1.19208C2.76872 3.13303 0 7.24345 0 12.0009C0 16.7584 2.76872 20.8688 6.78262 22.8098V1.19208Z" fill="#0052B4"/>
<path d="M17.2173 1.19208V22.8098C21.2312 20.8688 23.9999 16.7584 23.9999 12.0009C23.9999 7.24345 21.2312 3.13303 17.2173 1.19208Z" fill="#D80027"/>
<path d="M16.1735 9.44222H13.3039C13.3039 8.72185 12.7199 8.13788 11.9996 8.13788C11.2792 8.13788 10.6952 8.72185 10.6952 9.44222H7.82568C7.82568 10.1515 8.44354 10.7264 9.15271 10.7264H9.10996C9.10996 11.4357 9.68493 12.0107 10.3942 12.0107C10.3942 12.6387 10.8453 13.1605 11.441 13.2721L10.4289 15.5569C10.9139 15.754 11.4438 15.8635 11.9996 15.8635C12.5553 15.8635 13.0853 15.754 13.5702 15.5569L12.5582 13.2721C13.1539 13.1605 13.6049 12.6387 13.6049 12.0107C14.3142 12.0107 14.8892 11.4357 14.8892 10.7264H14.8464C15.5557 10.7264 16.1735 10.1514 16.1735 9.44222Z" fill="#FF9811"/>
<path d="M11.9999 11.2177L10.3042 12.0003V13.5655L11.9999 14.609L13.6955 13.5655V12.0003L11.9999 11.2177Z" fill="#0052B4"/>
<path d="M13.6955 10.4341H10.3042V11.9993H13.6955V10.4341Z" fill="#D80027"/>
</g>
<defs>
<clipPath id="clip0_2973_71641">
<rect width="24" height="24" fill="white"/>
</clipPath>
</defs>
</svg>
