<svg width="24" height="24" viewBox="0 0 24 24" fill="none" xmlns="http://www.w3.org/2000/svg">
<g clip-path="url(#clip0_2973_71556)">
<path d="M12 24C18.6274 24 24 18.6274 24 12C24 5.37258 18.6274 0 12 0C5.37258 0 0 5.37258 0 12C0 18.6274 5.37258 24 12 24Z" fill="#496E2D"/>
<path d="M14.0867 11.5003C13.7922 11.5003 13.5125 11.559 13.2528 11.6525C13.3951 11.3354 13.4905 10.9826 13.4905 10.6059C13.4905 9.11521 11.9998 7.99719 11.9998 7.99719C11.9998 7.99719 10.5091 9.11521 10.5091 10.6059C10.5091 10.9826 10.6045 11.3354 10.7468 11.6525C10.4871 11.5591 10.2074 11.5003 9.91289 11.5003C8.42221 11.5003 7.3042 12.9909 7.3042 12.9909C7.3042 12.9909 8.42221 14.4816 9.91289 14.4816C10.7869 14.4816 11.5323 13.9694 11.9999 13.5454C12.4674 13.9693 13.2128 14.4816 14.0868 14.4816C15.5775 14.4816 16.6955 12.9909 16.6955 12.9909C16.6955 12.9909 15.5774 11.5003 14.0867 11.5003Z" fill="#F0F0F0"/>
<path d="M12.0006 4.69458L12.3086 5.64221H13.305L12.499 6.22796L12.8066 7.17558L12.0006 6.58983L11.1946 7.17558L11.5023 6.22796L10.6963 5.64221H11.6927L12.0006 4.69458Z" fill="#FFDA44"/>
<path d="M8.2111 6.35156L8.80351 6.88491L9.49384 6.48637L9.16965 7.21458L9.76201 7.74802L8.96926 7.66467L8.64507 8.39288L8.47923 7.6132L7.68652 7.52986L8.3768 7.13123L8.2111 6.35156Z" fill="#FFDA44"/>
<path d="M5.4375 9.12594L6.21722 9.29164L6.6158 8.60132L6.69914 9.39402L7.47877 9.55986L6.75061 9.8841L6.83395 10.6768L6.30047 10.0845L5.57231 10.4087L5.97089 9.7183L5.4375 9.12594Z" fill="#FFDA44"/>
<path d="M15.7896 6.35156L15.1973 6.88491L14.5069 6.48637L14.8311 7.21458L14.2388 7.74802L15.0315 7.66467L15.3557 8.39288L15.5216 7.6132L16.3143 7.52986L15.624 7.13123L15.7896 6.35156Z" fill="#FFDA44"/>
<path d="M18.5632 9.12594L17.7835 9.29164L17.385 8.60132L17.3016 9.39402L16.522 9.55986L17.2501 9.8841L17.1668 10.6768L17.7003 10.0845L18.4284 10.4087L18.0298 9.7183L18.5632 9.12594Z" fill="#FFDA44"/>
<path d="M11.9997 18.6554C13.1838 18.6554 14.2752 18.2603 15.1507 17.5956H8.84863C9.72416 18.2603 10.8156 18.6554 11.9997 18.6554Z" fill="#F0F0F0"/>
<path d="M7.21729 15.5243C7.38289 15.9033 7.59289 16.2583 7.83955 16.5841H16.1607C16.4074 16.2584 16.6174 15.9033 16.783 15.5243H7.21729Z" fill="#F0F0F0"/>
</g>
<defs>
<clipPath id="clip0_2973_71556">
<rect width="24" height="24" fill="white"/>
</clipPath>
</defs>
</svg>
