<svg width="24" height="24" viewBox="0 0 24 24" fill="none" xmlns="http://www.w3.org/2000/svg">
<g clip-path="url(#clip0_2973_71750)">
<path d="M1.19023 6.78213C0.427387 8.35976 -0.000488281 10.1296 -0.000488281 11.9995C-0.000488281 13.8694 0.427387 15.6393 1.19023 17.2169L11.9995 18.2604L22.8088 17.2169C23.5716 15.6393 23.9995 13.8694 23.9995 11.9995C23.9995 10.1296 23.5716 8.35976 22.8088 6.78213L11.9995 5.73865L1.19023 6.78213Z" fill="#F0F0F0"/>
<path d="M1.19092 17.2183C3.13182 21.2322 7.24225 24.0009 11.9998 24.0009C16.7573 24.0009 20.8677 21.2322 22.8086 17.2183H1.19092Z" fill="#6DA544"/>
<path d="M1.19092 6.78238H22.8086C20.8677 2.76843 16.7573 -0.000244141 11.9998 -0.000244141C7.24229 -0.000244141 3.13182 2.76843 1.19092 6.78238Z" fill="#FF9811"/>
<path d="M12.0001 16.1742C14.3052 16.1742 16.174 14.3055 16.174 12.0003C16.174 9.69513 14.3052 7.82642 12.0001 7.82642C9.69489 7.82642 7.82617 9.69513 7.82617 12.0003C7.82617 14.3055 9.69489 16.1742 12.0001 16.1742Z" fill="#FF9811"/>
</g>
<defs>
<clipPath id="clip0_2973_71750">
<rect width="24" height="24" fill="white"/>
</clipPath>
</defs>
</svg>
