<svg width="24" height="24" viewBox="0 0 24 24" fill="none" xmlns="http://www.w3.org/2000/svg">
<g clip-path="url(#clip0_2973_71778)">
<path d="M17.217 1.19044C15.6394 0.4276 13.8695 -0.000274658 11.9996 -0.000274658C10.1297 -0.000274658 8.35988 0.4276 6.78225 1.19044L5.73877 11.9997L6.78225 22.809C8.35988 23.5718 10.1297 23.9997 11.9996 23.9997C13.8695 23.9997 15.6394 23.5718 17.217 22.809L18.2605 11.9997L17.217 1.19044Z" fill="#F0F0F0"/>
<path d="M6.78262 1.19125C2.76867 3.13216 0 7.24258 0 12.0001C0 16.7576 2.76867 20.8681 6.78262 22.809V1.19125Z" fill="#6DA544"/>
<path d="M17.2173 1.19125V22.809C21.2312 20.8681 23.9999 16.7576 23.9999 12.0001C23.9999 7.24263 21.2312 3.13216 17.2173 1.19125Z" fill="#6DA544"/>
<path d="M15.1305 15.6517L12.0001 5.73862L8.86963 15.6517H11.2175V18.2603H12.7827V15.6517H15.1305Z" fill="#6DA544"/>
</g>
<defs>
<clipPath id="clip0_2973_71778">
<rect width="24" height="24" fill="white"/>
</clipPath>
</defs>
</svg>
