<svg width="24" height="24" viewBox="0 0 24 24" fill="none" xmlns="http://www.w3.org/2000/svg">
<g clip-path="url(#clip0_2973_71756)">
<path d="M12 24C18.6274 24 24 18.6274 24 12C24 5.37258 18.6274 0 12 0C5.37258 0 0 5.37258 0 12C0 18.6274 5.37258 24 12 24Z" fill="#F0F0F0"/>
<path d="M-0.000488281 12.0003C-0.000488281 17.1599 3.25601 21.5584 7.82562 23.2539V0.746704C3.25601 2.44217 -0.000488281 6.84074 -0.000488281 12.0003Z" fill="#6DA544"/>
<path d="M23.9999 12.0003C23.9999 6.84074 20.7434 2.44217 16.1738 0.746704V23.254C20.7434 21.5584 23.9999 17.1599 23.9999 12.0003Z" fill="#6DA544"/>
</g>
<defs>
<clipPath id="clip0_2973_71756">
<rect width="24" height="24" fill="white"/>
</clipPath>
</defs>
</svg>
