<svg width="24" height="24" viewBox="0 0 24 24" fill="none" xmlns="http://www.w3.org/2000/svg">
<g clip-path="url(#clip0_2973_72240)">
<path d="M6.49763 1.33191C5.42335 1.88639 4.41493 2.61319 3.51436 3.51375C2.61375 4.41436 1.88696 5.42278 1.33252 6.49706L9.04847 14.9509L17.5023 22.6669C18.5767 22.1124 19.5851 21.3856 20.4856 20.4851C21.3863 19.5845 22.113 18.576 22.6675 17.5018L14.9515 9.04786L6.49763 1.33191Z" fill="#F0F0F0"/>
<path d="M20.4853 20.486C20.9887 19.9826 21.4377 19.4455 21.833 18.8821L5.11804 2.16711C4.55464 2.56232 4.0175 3.01129 3.51411 3.51468C3.01072 4.01807 2.56175 4.55521 2.1665 5.11865L18.8814 21.8335C19.4448 21.4383 19.982 20.9894 20.4853 20.486Z" fill="black"/>
<path d="M3.51431 20.4865C7.30026 24.2725 12.9861 24.9992 17.5023 22.6683L1.33251 6.49854C-0.998347 11.0148 -0.271457 16.7006 3.51431 20.4865Z" fill="#D80027"/>
<path d="M20.4855 3.51461C16.6996 -0.271293 11.0138 -0.998043 6.49756 1.33272L22.6673 17.5026C24.9982 12.9864 24.2715 7.30052 20.4855 3.51461Z" fill="#D80027"/>
</g>
<defs>
<clipPath id="clip0_2973_72240">
<rect width="24" height="24" fill="white"/>
</clipPath>
</defs>
</svg>
