<svg width="24" height="24" viewBox="0 0 24 24" fill="none" xmlns="http://www.w3.org/2000/svg">
<g clip-path="url(#clip0_2973_72299)">
<path d="M24 12C24 18.6274 18.6274 24 12 24C5.37263 24 0 18.6274 0 12C0 12.0029 12 0.0013125 12 0C18.6274 0 24 5.37262 24 12Z" fill="#338AF3"/>
<path d="M5.73926 12.0012H9.78654L6.26098 7.82727L5.73926 9.39247V12.0012Z" fill="#0052B4"/>
<path d="M12.0001 9.78671L7.82617 5.73938H12.0001L12.0001 9.78671Z" fill="#0052B4"/>
<path d="M11.9683 11.9996H12.0004C12.0004 11.9888 12.0004 11.9783 12.0004 11.9674C11.9897 11.9782 11.979 11.9889 11.9683 11.9996Z" fill="#F0F0F0"/>
<path d="M12.0005 6.26123C12.0005 4.14974 12.0005 2.76618 12.0005 0.000366211H11.9985C5.37199 0.00149121 0.000488281 5.3736 0.000488281 12.0004H6.26139V8.47485L9.78691 12.0004H11.9685C11.9792 11.9897 11.9898 11.979 12.0006 11.9683C12.0006 11.1598 12.0006 10.4384 12.0006 9.78683L8.47493 6.26123H12.0005Z" fill="#F0F0F0"/>
<path d="M6.07124 1.56543C4.19441 2.63413 2.63413 4.19441 1.56543 6.07124V12.0002H4.69588V4.69598V4.69588H12.0002C12.0002 3.70856 12.0002 2.76796 12.0002 1.56543H6.07124Z" fill="#D80027"/>
<path d="M12.0004 10.5242L7.73686 6.26074H6.26123V6.26084L12.0003 11.9998H12.0004C12.0004 11.9998 12.0004 10.9823 12.0004 10.5242Z" fill="#D80027"/>
<path d="M13.0972 19.8252L13.3562 20.6224H14.1944L13.5163 21.115L13.7753 21.9121L13.0972 21.4195L12.4191 21.9121L12.6781 21.115L12 20.6224H12.8381L13.0972 19.8252Z" fill="#FFDA44"/>
<path d="M19.7725 14.6094L20.0315 15.4065H20.8696L20.1916 15.8992L20.4507 16.6963L19.7725 16.2037L19.0944 16.6963L19.3535 15.8992L18.6753 15.4065H19.5135L19.7725 14.6094Z" fill="#FFDA44"/>
<path d="M21.4448 6.78259L21.7038 7.57975H22.542L21.864 8.07241L22.123 8.86951L21.4448 8.3769L20.7668 8.86951L21.0258 8.07241L20.3477 7.57975H21.1858L21.4448 6.78259Z" fill="#FFDA44"/>
<path d="M21.8594 12.5215L22.1184 13.3187H22.9566L22.2785 13.8113L22.5376 14.6085L21.8594 14.1158L21.1814 14.6085L21.4404 13.8113L20.7622 13.3187H21.6004L21.8594 12.5215Z" fill="#FFDA44"/>
<path d="M14.299 17.9513L15.0459 18.3319L15.6386 17.7393L15.5075 18.567L16.2543 18.9475L15.4264 19.0787L15.2953 19.9066L14.9148 19.1597L14.0869 19.2909L14.6796 18.6983L14.299 17.9513Z" fill="#FFDA44"/>
<path d="M14.299 14.8215L15.0459 15.202L15.6386 14.6094L15.5075 15.4372L16.2543 15.8177L15.4264 15.9488L15.2953 16.7767L14.9148 16.0299L14.0869 16.161L14.6796 15.5684L14.299 14.8215Z" fill="#FFDA44"/>
<path d="M16.9079 16.8272L17.6548 17.2078L18.2475 16.6151L18.1164 17.4429L18.8632 17.8234L18.0353 17.9546L17.9041 18.7824L17.5237 18.0355L16.6958 18.1668L17.2884 17.5741L16.9079 16.8272Z" fill="#FFDA44"/>
<path d="M16.9079 10.1248L17.6548 10.5054L18.2475 9.91272L18.1164 10.7405L18.8632 11.121L18.0353 11.2522L17.9041 12.08L17.5237 11.3332L16.6958 11.4644L17.2884 10.8717L16.9079 10.1248Z" fill="#FFDA44"/>
<path d="M19.4362 10.0445L20.1831 10.425L20.7758 9.8324L20.6447 10.6602L21.3915 11.0407L20.5636 11.1718L20.4325 11.9997L20.052 11.2529L19.2241 11.3841L19.8168 10.7914L19.4362 10.0445Z" fill="#FFDA44"/>
</g>
<defs>
<clipPath id="clip0_2973_72299">
<rect width="24" height="24" fill="white"/>
</clipPath>
</defs>
</svg>
