<svg width="24" height="24" viewBox="0 0 24 24" fill="none" xmlns="http://www.w3.org/2000/svg">
<g clip-path="url(#clip0_2973_72137)">
<path d="M17.739 1.45932C16.0342 0.529135 14.0788 0.000244141 11.9999 0.000244141C9.921 0.000244141 7.96566 0.529135 6.26077 1.45932L5.21729 12.0002L6.26077 22.5412C7.96566 23.4714 9.921 24.0002 11.9999 24.0002C14.0788 24.0002 16.0342 23.4714 17.739 22.5412L18.7825 12.0002L17.739 1.45932Z" fill="#FFDA44"/>
<path d="M6.26135 22.5408V1.45898C2.53122 3.4943 0.000488281 7.45144 0.000488281 12C0.000488281 16.5485 2.53122 20.5056 6.26135 22.5408Z" fill="#338AF3"/>
<path d="M24.0001 12.0002C24.0001 7.45168 21.4694 3.49454 17.7393 1.45923V22.541C21.4694 20.5059 24.0001 16.5487 24.0001 12.0002Z" fill="#6DA544"/>
<path d="M9.3917 15.1298L7.30469 11.9993L9.39166 8.8689L11.4787 11.9993L9.3917 15.1298Z" fill="#6DA544"/>
<path d="M14.6094 15.1298L12.5225 11.9993L14.6094 8.8689L16.6964 11.9993L14.6094 15.1298Z" fill="#6DA544"/>
<path d="M12.0005 19.3037L9.91357 16.1733L12.0005 13.0428L14.0875 16.1733L12.0005 19.3037Z" fill="#6DA544"/>
</g>
<defs>
<clipPath id="clip0_2973_72137">
<rect width="24" height="24" fill="white"/>
</clipPath>
</defs>
</svg>
