<svg width="24" height="24" viewBox="0 0 24 24" fill="none" xmlns="http://www.w3.org/2000/svg">
<g clip-path="url(#clip0_2973_70785)">
<path d="M12 24C18.6274 24 24 18.6274 24 12C24 5.37258 18.6274 0 12 0C5.37258 0 0 5.37258 0 12C0 18.6274 5.37258 24 12 24Z" fill="#F0F0F0"/>
<path d="M22.8522 6.87246C22.2426 5.58461 21.4105 4.42291 20.4055 3.43643L12.0008 2.60913L3.5961 3.43647C3.56929 3.46277 3.54313 3.48968 3.5166 3.51625L6.87285 6.8725L12.0008 7.02911L22.8522 6.87246Z" fill="#FFDA44"/>
<path d="M3.51611 20.4853C3.56027 20.5295 3.60433 20.5737 3.64914 20.6172L12.0004 21.3923L20.3516 20.6172C21.367 19.6328 22.2093 18.471 22.8275 17.1812L7.30474 16.6967C5.96913 18.0323 4.42863 19.5727 3.51611 20.4853Z" fill="#FFDA44"/>
<path d="M23.8807 10.3081L9.91309 9.91309L12.0001 12.0001C11.3819 12.6182 10.4591 13.541 9.91309 14.087L23.8734 13.7442C23.9564 13.1747 24.0001 12.5925 24.0001 12.0001C24.0001 11.4256 23.9588 10.861 23.8807 10.3081Z" fill="black"/>
<path d="M11.9999 0.000610352C8.72672 0.000610352 5.76018 1.3117 3.59521 3.43664H20.4046C18.2396 1.3117 15.2731 0.000610352 11.9999 0.000610352Z" fill="#6DA544"/>
<path d="M10.3076 10.3086H23.8802C23.709 9.09551 23.3567 7.94079 22.851 6.87256H6.87158L10.3076 10.3086Z" fill="#D80027"/>
<path d="M6.81934 17.1815H22.8266C23.3382 16.1141 23.6961 14.9592 23.8729 13.7455H10.2554C8.92473 15.0761 7.79701 16.2038 6.81934 17.1815Z" fill="#D80027"/>
<path d="M12.0001 24.0006C15.2465 24.0006 18.1911 22.7109 20.3513 20.6167H3.64893C5.80911 22.7109 8.7538 24.0006 12.0001 24.0006Z" fill="#6DA544"/>
<path d="M4.28504 2.80994C4.01827 3.03409 3.76088 3.26908 3.51465 3.51522L12 12.0005L3.51465 20.4858C3.76084 20.732 4.01827 20.967 4.28504 21.1911L13.4756 12.0005L4.28504 2.80994Z" fill="black"/>
<path d="M4.82467 8.86914L5.60163 11.2605H8.11624L6.08195 12.7386L6.85895 15.13L4.82467 13.652L2.79034 15.13L3.56744 12.7386L1.5332 11.2605H4.04767L4.82467 8.86914Z" fill="#D80027"/>
<path d="M6.96233 12.1947L4.93743 11.4773C4.93743 11.4773 4.7878 10.0738 4.77875 10.0262C4.71004 9.66418 4.39189 9.39038 4.00986 9.39038C3.57768 9.39038 3.22724 9.74077 3.22724 10.173C3.22724 10.2447 3.23769 10.3137 3.25574 10.3797L2.68799 10.9513C2.68799 10.9513 3.36233 10.9513 3.69749 10.9513C3.69749 11.9991 2.91561 11.9991 2.91561 13.0425L3.34935 14.086H5.95804L6.39285 13.0425H6.39266C6.43621 12.9424 6.46264 12.8392 6.47357 12.736C6.84838 12.5844 6.96233 12.1947 6.96233 12.1947Z" fill="#FFDA44"/>
</g>
<defs>
<clipPath id="clip0_2973_70785">
<rect width="24" height="24" fill="white"/>
</clipPath>
</defs>
</svg>
