<svg width="24" height="24" viewBox="0 0 24 24" fill="none" xmlns="http://www.w3.org/2000/svg">
<path fill-rule="evenodd" clip-rule="evenodd" d="M17.6568 4.3432C17.3639 4.05031 16.889 4.05031 16.5961 4.3432C16.3032 4.6361 16.3032 5.11097 16.5961 5.40387C19.1345 7.94227 19.1345 12.0578 16.5961 14.5963C16.3032 14.8891 16.3032 15.364 16.5961 15.6569C16.889 15.9498 17.3639 15.9498 17.6568 15.6569C20.781 12.5327 20.781 7.4674 17.6568 4.3432ZM7.40381 5.40387C7.6967 5.11097 7.6967 4.6361 7.40381 4.3432C7.11091 4.05031 6.63604 4.05031 6.34315 4.3432C3.21895 7.4674 3.21895 12.5327 6.34315 15.6569C6.63604 15.9498 7.11091 15.9498 7.40381 15.6569C7.6967 15.364 7.6967 14.8891 7.40381 14.5963C4.8654 12.0578 4.8654 7.94227 7.40381 5.40387ZM14.4749 6.46442C14.7678 6.17153 15.2427 6.17153 15.5356 6.46442C17.4882 8.41704 17.4882 11.5829 15.5356 13.5355C15.2427 13.8284 14.7678 13.8284 14.4749 13.5355C14.182 13.2426 14.182 12.7677 14.4749 12.4748C15.8418 11.108 15.8418 8.89192 14.4749 7.52508C14.182 7.23219 14.182 6.75731 14.4749 6.46442ZM9.52513 7.52508C9.81802 7.23219 9.81802 6.75731 9.52513 6.46442C9.23223 6.17153 8.75736 6.17153 8.46447 6.46442C6.51184 8.41704 6.51184 11.5829 8.46447 13.5355C8.75736 13.8284 9.23223 13.8284 9.52513 13.5355C9.81802 13.2426 9.81802 12.7677 9.52513 12.4748C8.15829 11.108 8.15829 8.89192 9.52513 7.52508ZM11 10C11 9.44772 11.4477 9 12 9C12.5523 9 13 9.44772 13 10C13 10.5523 12.5523 11 12 11C11.4477 11 11 10.5523 11 10ZM12.75 13.75C12.75 13.3358 12.4142 13 12 13C11.5858 13 11.25 13.3358 11.25 13.75V19.25C11.25 19.6642 11.5858 20 12 20C12.4142 20 12.75 19.6642 12.75 19.25V13.75Z" fill="#8A8AA3"/>
</svg>
