<svg width="24" height="24" viewBox="0 0 24 24" fill="none" xmlns="http://www.w3.org/2000/svg">
<path d="M4.75 7.75C4.75 8.99264 5.5 10.25 7 10.25C8.5 10.25 9.5 8.99264 9.5 7.75C9.5 8.99264 10.5 10.25 12 10.25C13.5 10.25 14.5 8.99264 14.5 7.75C14.5 8.99264 15.5 10.25 17 10.25C18.5 10.25 19.25 8.99264 19.25 7.75M17.2502 19.2502H6.75024C5.64568 19.2502 4.75024 18.3548 4.75024 17.2502V8.18322C4.75024 7.89772 4.81137 7.61552 4.92951 7.35561L5.46734 6.17239C5.79188 5.45841 6.50378 5 7.28807 5H16.7124C17.4967 5 18.2086 5.45841 18.5332 6.17239L19.071 7.35561C19.1891 7.61552 19.2502 7.89772 19.2502 8.18322V17.2502C19.2502 18.3548 18.3548 19.2502 17.2502 19.2502ZM14.2496 19.2493V15.7493C14.2496 14.6447 13.3542 13.7493 12.2496 13.7493H11.7496C10.6451 13.7493 9.74963 14.6447 9.74963 15.7493V19.2493H14.2496Z" stroke="#8A8AA3" stroke-width="1.5" stroke-linecap="round" stroke-linejoin="round"/>
</svg>
