<svg width="24" height="24" viewBox="0 0 24 24" fill="none" xmlns="http://www.w3.org/2000/svg">
<path d="M9 6.75H7.75C6.64543 6.75 5.75 7.64543 5.75 8.75V17.25C5.75 18.3546 6.64543 19.25 7.75 19.25H16.25C17.3546 19.25 18.25 18.3546 18.25 17.25V8.75C18.25 7.64543 17.3546 6.75 16.25 6.75H15M9.75 12.25H14.25M9.75 15.25H14.25M10 8.25H14C14.5523 8.25 15 7.80228 15 7.25V5.75C15 5.19772 14.5523 4.75 14 4.75H10C9.44772 4.75 9 5.19772 9 5.75V7.25C9 7.80228 9.44772 8.25 10 8.25Z" stroke="#8A8AA3" stroke-width="1.5" stroke-linecap="round" stroke-linejoin="round"/>
</svg>
