<svg width="24" height="24" viewBox="0 0 24 24" fill="none" xmlns="http://www.w3.org/2000/svg">
<path d="M8.75 19V15.75C8.75 15.1977 9.19772 14.75 9.75 14.75H14.25C14.8023 14.75 15.25 15.1977 15.25 15.75V19M8.75 5V8.25M17.25 19.25H6.75C5.64543 19.25 4.75 18.3546 4.75 17.25V6.75C4.75 5.64543 5.64543 4.75 6.75 4.75H14.1716C14.702 4.75 15.2107 4.96071 15.5858 5.33579L18.6642 8.41421C19.0393 8.78929 19.25 9.29799 19.25 9.82843V17.25C19.25 18.3546 18.3546 19.25 17.25 19.25Z" stroke="#8A8AA3" stroke-width="1.5" stroke-linecap="round" stroke-linejoin="round"/>
</svg>
