<svg width="24" height="24" viewBox="0 0 24 24" fill="none" xmlns="http://www.w3.org/2000/svg">
<path fill-rule="evenodd" clip-rule="evenodd" d="M12 5.5C8.41015 5.5 5.5 8.41015 5.5 12C5.5 15.5899 8.41015 18.5 12 18.5C15.5899 18.5 18.5 15.5899 18.5 12C18.5 8.41015 15.5899 5.5 12 5.5ZM4 12C4 7.58172 7.58172 4 12 4C16.4183 4 20 7.58172 20 12C20 16.4183 16.4183 20 12 20C7.58172 20 4 16.4183 4 12ZM10.4949 10.0869C10.4949 10.0872 10.4949 10.0871 10.495 10.0864L10.496 10.0793C10.4972 10.0704 10.4996 10.0544 10.5035 10.0323C10.5112 9.98789 10.5247 9.91999 10.5463 9.83666C10.5903 9.66701 10.6639 9.44939 10.7806 9.23923C11.0049 8.83547 11.3525 8.5 12 8.5C12.8345 8.5 13.1323 8.75058 13.2647 8.93593C13.4345 9.1736 13.5 9.5336 13.5 10C13.5 10.4665 13.2445 10.9236 12.7095 11.1303C12.0749 11.3755 11.25 11.989 11.25 13V13.25C11.25 13.6642 11.5858 14 12 14C12.4142 14 12.75 13.6642 12.75 13.25V13C12.75 12.9483 12.7685 12.8784 12.8517 12.787C12.9396 12.6903 13.0797 12.5953 13.2501 12.5295C14.4087 12.0818 15 11.0362 15 10C15 9.4664 14.9405 8.7014 14.4853 8.06407C13.9927 7.37442 13.1655 7 12 7C10.6475 7 9.87007 7.78953 9.46938 8.51077C9.27364 8.86311 9.15971 9.20799 9.09431 9.46022C9.06123 9.58782 9.03955 9.6957 9.02583 9.77432C9.01894 9.81373 9.01401 9.84608 9.01062 9.87021L9.00661 9.90019L9.00537 9.91036L9.00492 9.91419L9.00474 9.91579L9.00466 9.91651C9.00462 9.91685 9.00459 9.91718 9.75 10L9.00459 9.91718C8.95885 10.3289 9.2555 10.6997 9.66718 10.7454C10.0776 10.791 10.4473 10.4964 10.495 10.0867L10.4949 10.0869ZM12 15C11.4477 15 11 15.4477 11 16C11 16.5523 11.4477 17 12 17C12.5523 17 13 16.5523 13 16C13 15.4477 12.5523 15 12 15Z" fill="#8A8AA3"/>
</svg>
