<svg width="24" height="24" viewBox="0 0 24 24" fill="none" xmlns="http://www.w3.org/2000/svg">
<path fill-rule="evenodd" clip-rule="evenodd" d="M11.5 9C11.5 7.067 13.067 5.5 15 5.5C16.933 5.5 18.5 7.067 18.5 9C18.5 10.933 16.933 12.5 15 12.5C14.7436 12.5 14.4944 12.4726 14.255 12.4207C14.0058 12.3667 13.7463 12.4431 13.566 12.6234L13.1893 13H11.75C11.3358 13 11 13.3358 11 13.75V15.1893L10.1893 16H8.75C8.33579 16 8 16.3358 8 16.75V18.1893L7.68934 18.5H5.5V16.3107L11.3766 10.434C11.5569 10.2537 11.6333 9.99419 11.5793 9.74498C11.5274 9.50557 11.5 9.25642 11.5 9ZM15 4C12.2386 4 10 6.23858 10 9C10 9.2192 10.0142 9.43541 10.0416 9.64769L4.21967 15.4697C4.07902 15.6103 4 15.8011 4 16V19.25C4 19.6642 4.33579 20 4.75 20H8C8.19891 20 8.38968 19.921 8.53033 19.7803L9.28033 19.0303C9.42098 18.8897 9.5 18.6989 9.5 18.5V17.5H10.5C10.6989 17.5 10.8897 17.421 11.0303 17.2803L12.2803 16.0303C12.421 15.8897 12.5 15.6989 12.5 15.5V14.5H13.5C13.6989 14.5 13.8897 14.421 14.0303 14.2803L14.3523 13.9584C14.5646 13.9858 14.7808 14 15 14C17.7614 14 20 11.7614 20 9C20 6.23858 17.7614 4 15 4ZM16 7C15.4477 7 15 7.44772 15 8C15 8.55228 15.4477 9 16 9C16.5523 9 17 8.55228 17 8C17 7.44772 16.5523 7 16 7Z" fill="#8A8AA3"/>
</svg>
