<svg width="24" height="24" viewBox="0 0 24 24" fill="none" xmlns="http://www.w3.org/2000/svg">
<path d="M19.25 4.75L14.75 9.25M19.25 4.75V8.25M19.25 4.75H15.75M6.06818 4.75H8.89286L10.9643 7.85714L9.32669 9.49474C9.06052 9.76091 8.96734 10.1537 9.12829 10.494C9.41548 11.1011 9.98768 12.1045 10.9643 13.0357C11.9181 13.9452 12.8858 14.524 13.4821 14.8321C13.8337 15.0137 14.2519 14.9267 14.5317 14.6468L16.1429 13.0357L19.25 15.1071V17.9318C19.25 18.6598 18.6598 19.25 17.9318 19.25C10.6517 19.25 4.75 13.3483 4.75 6.06818C4.75 5.34017 5.34017 4.75 6.06818 4.75Z" stroke="#8A8AA3" stroke-width="1.5" stroke-linecap="round" stroke-linejoin="round"/>
</svg>
