<svg width="24" height="24" viewBox="0 0 24 24" fill="none" xmlns="http://www.w3.org/2000/svg">
<path d="M8.5 16C8.5 16.2761 8.27614 16.5 8 16.5C7.72386 16.5 7.5 16.2761 7.5 16C7.5 15.7239 7.72386 15.5 8 15.5C8.27614 15.5 8.5 15.7239 8.5 16Z" stroke="#8A8AA3" stroke-linecap="round" stroke-linejoin="round"/>
<path d="M11.5 16C11.5 16.2761 11.2761 16.5 11 16.5C10.7239 16.5 10.5 16.2761 10.5 16C10.5 15.7239 10.7239 15.5 11 15.5C11.2761 15.5 11.5 15.7239 11.5 16Z" stroke="#8A8AA3" stroke-linecap="round" stroke-linejoin="round"/>
<path d="M12 12.5V10.75M9.7019 8.7019C10.9711 7.4327 13.0289 7.4327 14.2981 8.7019M7.58058 6.58058C10.0214 4.13981 13.9786 4.13981 16.4194 6.58058M4.75 17.25V14.75C4.75 13.6454 5.64543 12.75 6.75 12.75H17.25C18.3546 12.75 19.25 13.6454 19.25 14.75V17.25C19.25 18.3546 18.3546 19.25 17.25 19.25H6.75C5.64543 19.25 4.75 18.3546 4.75 17.25Z" stroke="#8A8AA3" stroke-width="1.5" stroke-linecap="round" stroke-linejoin="round"/>
</svg>
