<svg width="24" height="24" viewBox="0 0 24 24" fill="none" xmlns="http://www.w3.org/2000/svg">
<path d="M15.75 14C17.8287 14 18.6802 16.1479 19.0239 17.696C19.2095 18.532 18.5333 19.25 17.6768 19.25H16.75M14.75 10.25C16.2687 10.25 17.25 9.01878 17.25 7.5C17.25 5.98122 16.2687 4.75 14.75 4.75M13.2183 19.25H5.78164C5.21714 19.25 4.77296 18.7817 4.88545 18.2285C5.19601 16.7012 6.21027 14 9.49996 14C12.7896 14 13.8039 16.7012 14.1145 18.2285C14.227 18.7817 13.7828 19.25 13.2183 19.25ZM12.25 7.5C12.25 9.01878 11.0187 10.25 9.49996 10.25C7.98118 10.25 6.74996 9.01878 6.74996 7.5C6.74996 5.98122 7.98118 4.75 9.49996 4.75C11.0187 4.75 12.25 5.98122 12.25 7.5Z" stroke="#8A8AA3" stroke-width="1.5" stroke-linecap="round" stroke-linejoin="round"/>
</svg>
