<svg width="24" height="24" viewBox="0 0 24 24" fill="none" xmlns="http://www.w3.org/2000/svg">
<path d="M10.75 4.75H13.25M10.75 19.25H13.25M12 5V7.25M12 16.75V19M16.2426 5.98959L18.0104 7.75736M5.98956 16.2426L7.75733 18.0104M16.9497 7.05025L15.3587 8.64124M8.64121 15.3588L7.05022 16.9497M19.25 10.7499V13.2499M4.75 10.7499V13.2499M19 11.9999H16.75M7.25 11.9999H5M18.0104 16.2426L16.2426 18.0104M7.75733 5.98959L5.98956 7.75736M16.9497 16.9497L15.3587 15.3588M8.64121 8.64124L7.05022 7.05025M16.25 12C16.25 14.3472 14.3472 16.25 12 16.25C9.65276 16.25 7.74997 14.3472 7.74997 12C7.74997 9.65279 9.65276 7.75 12 7.75C14.3472 7.75 16.25 9.65279 16.25 12Z" stroke="#8A8AA3" stroke-width="1.5" stroke-linecap="round" stroke-linejoin="round"/>
</svg>
